<svg width="30" height="30" viewBox="0 0 30 30" fill="none" xmlns="http://www.w3.org/2000/svg">
<path d="M22.5 3.75H7.5C5.4325 3.75 3.75 5.4325 3.75 7.5V22.5C3.75 24.5675 5.4325 26.25 7.5 26.25H22.5C24.5675 26.25 26.25 24.5675 26.25 22.5V7.5C26.25 5.4325 24.5675 3.75 22.5 3.75ZM11.5463 20H8.82875V12.4525H11.5463V20ZM10.1375 11.0713C9.30625 11.0713 8.75 10.515 8.75 9.77375C8.75 9.0375 9.30625 8.4825 10.2325 8.4825C11.0637 8.4825 11.6138 9.03875 11.6138 9.77375C11.6138 10.515 11.0637 11.0713 10.1375 11.0713ZM21.25 20H18.6162V15.8725C18.6162 14.7325 17.9137 14.4688 17.65 14.4688C17.3862 14.4688 16.51 14.6488 16.51 15.8725C16.51 16.0525 16.51 20 16.51 20H13.7925V12.4525H16.51V13.5087C16.8638 12.8913 17.5662 12.4525 18.88 12.4525C20.1938 12.4525 21.25 13.5087 21.25 15.8725V20Z" fill="#FF9DE2"/>
</svg>
